<?xml version="1.0" standalone="no"?>
<!DOCTYPE svg PUBLIC "-//W3C//DTD SVG 20010904//EN"
 "http://www.w3.org/TR/2001/REC-SVG-20010904/DTD/svg10.dtd">
<svg version="1.0" xmlns="http://www.w3.org/2000/svg"
 width="822.000000pt" height="303.000000pt" viewBox="0 0 822.000000 303.000000"
 preserveAspectRatio="xMidYMid meet">

<g transform="translate(0.000000,303.000000) scale(0.100000,-0.100000)"
fill="#000000" stroke="none">
<path d="M295 3021 c-170 -42 -260 -224 -185 -371 10 -19 236 -280 502 -579
265 -299 484 -547 486 -552 3 -7 -195 -239 -203 -239 -1 0 -136 151 -301 336
-164 185 -312 343 -329 352 -21 11 -65 17 -144 20 -111 4 -113 4 -100 -15 17
-23 870 -983 874 -983 2 0 257 284 316 353 l24 28 169 -191 169 -191 32 33
c52 54 840 942 849 957 7 11 -11 12 -105 9 -67 -3 -126 -10 -142 -18 -15 -7
-163 -166 -328 -352 -166 -186 -302 -338 -303 -338 -5 0 -206 229 -206 235 0
4 217 250 482 548 265 298 493 561 505 583 70 125 13 287 -125 356 l-47 23
-930 2 c-511 0 -943 -2 -960 -6z m1873 -203 c22 -19 33 -57 23 -77 -17 -30
-952 -1076 -959 -1072 -6 3 -427 474 -858 960 -51 57 -94 112 -97 121 -7 28
12 60 42 73 42 18 1828 12 1849 -5z"/>
<path d="M790 2480 c-6 -11 -7 -26 -3 -34 9 -15 444 -506 448 -506 7 0 441
494 449 511 6 12 5 24 -4 34 -11 13 -70 15 -446 15 -424 0 -434 0 -444 -20z"/>
<path d="M7118 1941 l-33 -29 -3 -452 -3 -451 78 3 78 3 5 356 5 357 295 -265
c553 -497 518 -468 566 -468 28 0 49 7 64 20 49 43 50 56 50 510 l0 425 -80 0
-80 0 0 -356 c0 -215 -4 -354 -9 -352 -8 3 -157 135 -678 601 -133 118 -146
127 -183 127 -30 0 -48 -7 -72 -29z"/>
<path d="M5840 1947 c-95 -26 -153 -79 -202 -182 l-28 -60 0 -347 0 -348 80 0
79 0 3 118 3 117 415 3 c228 1 425 0 438 -3 21 -5 22 -9 22 -120 l0 -115 80 0
81 0 -3 348 -3 347 -31 66 c-36 75 -85 127 -152 161 -46 23 -53 23 -392 25
-253 2 -357 -1 -390 -10z m737 -197 c53 -32 67 -70 71 -202 l4 -118 -441 0
-441 0 0 115 c0 80 4 124 14 143 16 30 53 66 76 75 8 3 166 6 350 6 315 1 337
0 367 -19z"/>
<path d="M2773 1934 c-64 -23 -128 -86 -165 -162 l-33 -67 0 -215 c0 -238 4
-261 62 -347 40 -59 107 -107 173 -122 28 -7 233 -11 533 -11 l487 0 0 95 0
95 -497 0 c-476 0 -499 1 -530 20 -40 24 -64 69 -66 123 l-2 42 518 3 517 2 0
95 0 95 -517 0 -518 0 2 47 c2 49 21 83 67 117 27 20 40 21 527 24 l499 3 0
89 0 90 -507 -1 c-422 0 -515 -3 -550 -15z"/>
<path d="M4100 1480 l0 -471 513 3 c577 3 547 -1 635 83 31 28 60 69 78 108
l29 62 0 215 c-1 201 -2 219 -24 273 -30 77 -109 158 -175 180 -44 15 -108 17
-553 17 l-503 0 0 -470z m997 279 c86 -32 108 -100 101 -314 -5 -157 -16 -192
-71 -225 -30 -19 -53 -20 -449 -20 l-418 0 0 285 0 285 404 0 c262 0 415 -4
433 -11z"/>
<path d="M513 848 c-288 -320 -386 -434 -403 -468 -64 -126 -7 -285 128 -352
l47 -23 950 0 950 0 47 23 c135 67 193 225 129 350 -16 32 -280 338 -483 560
l-40 44 -52 -58 c-28 -31 -56 -65 -63 -74 -9 -13 25 -56 223 -279 129 -145
239 -272 244 -282 12 -21 0 -58 -24 -78 -21 -18 -1822 -19 -1856 -1 -27 14
-43 56 -31 78 5 9 115 136 244 282 137 153 233 269 229 276 -4 6 -32 39 -63
73 l-57 62 -119 -133z"/>
</g>
</svg>
